<?xml version="1.0" encoding="UTF-8" standalone="no"?>
<svg
   width="300"
   viewBox="0 0 720.48 300"
   version="1.1"
   id="svg21"
   sodipodi:docname="mimium_logo_slant.svg"
   inkscape:export-filename="mimium_logo_stroke_dark.svg"
   inkscape:export-xdpi="96"
   inkscape:export-ydpi="96"
   height="300"
   inkscape:version="1.3 (0e150ed, 2023-07-21)"
   xmlns:inkscape="http://www.inkscape.org/namespaces/inkscape"
   xmlns:sodipodi="http://sodipodi.sourceforge.net/DTD/sodipodi-0.dtd"
   xmlns="http://www.w3.org/2000/svg"
   xmlns:svg="http://www.w3.org/2000/svg"
   xmlns:rdf="http://www.w3.org/1999/02/22-rdf-syntax-ns#"
   xmlns:cc="http://creativecommons.org/ns#"
   xmlns:dc="http://purl.org/dc/elements/1.1/">
  <sodipodi:namedview
     id="namedview21"
     pagecolor="#ffffff"
     bordercolor="#000000"
     borderopacity="0.25"
     inkscape:showpageshadow="2"
     inkscape:pageopacity="0.0"
     inkscape:pagecheckerboard="0"
     inkscape:deskcolor="#d1d1d1"
     inkscape:zoom="0.76498846"
     inkscape:cx="234.64406"
     inkscape:cy="92.811858"
     inkscape:window-width="1440"
     inkscape:window-height="705"
     inkscape:window-x="0"
     inkscape:window-y="25"
     inkscape:window-maximized="0"
     inkscape:current-layer="レイヤー_1-2" />
  <defs
     id="defs7">
    <style
       id="style1">.cls-1{fill:url(#名称未設定グラデーション_25);}.cls-2{fill:#fff;}.cls-2,.cls-3{stroke:#fff;stroke-miterlimit:10;stroke-width:0.1px;}.cls-3{fill:none;}</style>
    <linearGradient
       id="名称未設定グラデーション_25"
       x1="85.379997"
       y1="363.37"
       x2="622.83002"
       y2="53.080002"
       gradientTransform="matrix(0.78,0.63,-0.81,0.63,245.03,-70.04)"
       gradientUnits="userSpaceOnUse">
      <stop
         offset="0"
         stop-color="#666"
         id="stop1" />
      <stop
         offset="0.18"
         stop-color="#626262"
         id="stop2" />
      <stop
         offset="0.36"
         stop-color="#565656"
         id="stop3" />
      <stop
         offset="0.55"
         stop-color="#414141"
         id="stop4" />
      <stop
         offset="0.58"
         stop-color="#3d3d3d"
         id="stop5" />
      <stop
         offset="0.79"
         stop-color="#2c2c2c"
         id="stop6" />
      <stop
         offset="1"
         stop-color="#1f1f1f"
         id="stop7" />
    </linearGradient>
  </defs>
  <title
     id="title7">アセット 2</title>
  <g
     id="レイヤー_2"
     data-name="レイヤー 2">
    <g
       id="レイヤー_1-2"
       data-name="レイヤー 1">
      <polygon
         class="cls-1"
         points="0,286.47 367.87,0 720.48,286.47 352.6,572.93 "
         id="polygon7"
         style="fill:#c3c3c3;fill-opacity:0;stroke:#ffffff;stroke-width:9.6064;stroke-dasharray:none;stroke-opacity:1"
         transform="translate(0,-109.87878)" />
      <polygon
         class="cls-2"
         points="237.8,247.55 314.13,188.11 326.55,198.2 250.22,257.64 "
         id="polygon8"
         style="fill:#000000;fill-opacity:0;stroke:#ffffff;stroke-width:9.6064;stroke-dasharray:none;stroke-opacity:1"
         transform="translate(0,-109.87878)" />
      <path
         id="path8"
         style="fill:#000000;fill-opacity:0;stroke:#ffffff;stroke-width:9.6064;stroke-dasharray:none;stroke-opacity:1"
         class="cls-2"
         d="m 253.52828,10.251598 c -6.89874,-0.15125 -13.82997,1.76009 -19.17996,5.76009 l -74.65599,58.16844 12.41608,10.08015 74.29012,-57.86824 c 3.53,-2.72 9.44004,-2.47305 13.19004,0.57695 3.74999,3.04999 3.94277,7.77107 0.41277,10.52107 l -74.2995,57.84948 12.40671,10.052012 74.23852,-57.830722 0.0235,0.0188 c 3.53,-2.74999 9.44881,-2.4965 13.2088,0.5535 3.76,3.04999 3.95215,7.76638 0.42216,10.51638 l -74.26198,57.849482 12.43016,10.06139 75.47216,-58.787612 c 9.48999,-8.37999 9.14929,-21.43918 -1.0507,-29.72918 -5.02358,-4.08315 -11.5561,-6.2665 -18.17149,-6.57156 -0.24081,-5.27152 -2.86274,-10.51634 -7.88963,-14.60192 -5.23499,-4.25499 -12.10298,-6.46722 -19.00172,-6.61847 z" />
      <polygon
         class="cls-2"
         points="342.03,332.23 418.36,272.79 430.78,282.88 354.45,342.32 "
         id="polygon11"
         style="fill:#000000;fill-opacity:0;stroke:#ffffff;stroke-width:9.6064;stroke-dasharray:none;stroke-opacity:1"
         transform="translate(0,-109.87878)" />
      <path
         id="path12"
         style="fill:#000000;fill-opacity:0;stroke:#ffffff;stroke-width:9.6064;stroke-dasharray:none;stroke-opacity:1"
         class="cls-2"
         d="m 357.71644,94.931448 c -6.89999,-0.1525 -13.82528,1.7601 -19.17527,5.760092 l -74.67006,58.15906 12.42077,10.05201 74.29012,-57.87293 c 3.54,-2.73 9.43004,-2.48774 13.19004,0.57225 3.76,3.06 3.93808,7.78108 0.40809,10.52108 l -74.26198,57.89638 12.42078,10.10361 74.21975,-57.92922 0.0704,0.0563 c 3.53,-2.75 9.46288,-2.48713 13.22288,0.56287 3.75999,3.05 3.93808,7.76639 0.40808,10.51638 l -74.26197,57.85417 12.31289,10.01918 75.46746,-58.7923 c 9.52999,-8.38999 9.20089,-21.44919 -0.9991,-29.72918 -5.02719,-4.08219 -11.55639,-6.26797 -18.17148,-6.57626 -0.24834,-5.25566 -2.86362,-10.48157 -7.87556,-14.555 -5.24,-4.250002 -12.1158,-6.465982 -19.0158,-6.618482 z" />
      <path
         id="path16"
         style="fill:#000000;fill-opacity:0;stroke:#ffffff;stroke-width:9.6064;stroke-dasharray:none;stroke-opacity:1"
         class="cls-2"
         d="m 514.04559,221.9442 c -6.89874,-0.15375 -13.82528,1.7554 -19.17527,5.75539 l -74.66068,58.17314 12.42078,10.08015 74.29011,-57.87293 c 3.53,-2.72 9.43005,-2.46836 13.19004,0.58163 3.76,3.05 3.93808,7.77108 0.40809,10.52108 l -74.25729,57.84947 12.42078,10.08954 74.21507,-57.88231 0.0422,0.0328 c 3.53,-2.75 9.46288,-2.50119 13.22287,0.5488 3.76,3.05 3.93808,7.77108 0.40809,10.52108 l -74.26198,57.84947 12.33166,10.06139 75.47215,-58.79229 c 9.53999,-8.37999 9.2062,-21.43919 -1.00379,-29.72918 -5.02438,-4.08381 -11.55501,-6.26706 -18.17148,-6.57157 -0.24242,-5.26696 -2.85623,-10.50478 -7.88494,-14.58784 -5.235,-4.255 -12.10767,-6.4741 -19.00642,-6.62785 z" />
      <path
         class="cls-2"
         d="m 369.8,272.78122 c -10.47,-8.51 -10.55,-22 -0.27,-30.38 v 0 l 74.69,-58.15 12.42,10.09 -74.31,57.85 c -3.51,2.75 -3.31,7.46 0.44,10.5 3.75,3.04 9.68,3.3 13.21,0.56 l 74.29,-57.83 12.42,10.09 -75.5,58.77 v 0 c -10.78,7.34 -27.19,6.84 -37.39,-1.5 z"
         id="path20"
         style="fill:#000000;fill-opacity:0;stroke:#ffffff;stroke-width:9.6064;stroke-dasharray:none;stroke-opacity:1" />
      <path
         sodipodi:type="star"
         style="fill:#ffffff;fill-opacity:1;stroke:#000000;stroke-width:1.38775;stroke-linejoin:round;stroke-dasharray:none;stroke-opacity:0"
         id="path27"
         inkscape:flatsided="true"
         sodipodi:sides="3"
         sodipodi:cx="42.797771"
         sodipodi:cy="304.72012"
         sodipodi:r1="32.571323"
         sodipodi:r2="16.285664"
         sodipodi:arg1="0"
         sodipodi:arg2="1.0471976"
         inkscape:rounded="0"
         inkscape:randomized="0"
         d="m 75.369095,304.72012 -48.856985,28.2076 0,-56.41519 z"
         transform="matrix(4.1616773,0,0,4.1506299,-26.106607,-951.84792)"
         inkscape:transform-center-x="-33.887836"
         inkscape:transform-center-y="-1.2265426e-05" />
    </g>
  </g>
  <metadata
     id="metadata27">
    <rdf:RDF>
      <cc:Work
         rdf:about="">
        <dc:title>アセット 2</dc:title>
      </cc:Work>
    </rdf:RDF>
  </metadata>
</svg>
